<?xml version="1.0" encoding="UTF-8"?>
<svg width="512" height="512" viewBox="0 0 24 24" xmlns="http://www.w3.org/2000/svg">
    <path fill="#9333EA" d="M12 16a3 3 0 1 1 0-6a3 3 0 0 1 0 6m0-2a1 1 0 1 0 0-2a1 1 0 0 0 0 2m9.8-3h-1.6c-.1-.8-.3-1.6-.7-2.3l1.4-.9c.3-.2.4-.6.2-.9l-1-1.7c-.2-.3-.6-.4-.9-.2l-1.4.9c-.5-.6-1.1-1.1-1.7-1.5l.5-1.6c.1-.4-.1-.8-.5-.9l-1.9-.6c-.4-.1-.8.1-.9.5l-.5 1.6c-.8-.1-1.6-.1-2.4 0l-.5-1.6c-.1-.4-.5-.6-.9-.5l-1.9.6c-.4.1-.6.5-.5.9l.5 1.6c-.7.4-1.3.9-1.7 1.5l-1.4-.9c-.3-.2-.7-.1-.9.2l-1 1.7c-.2.3-.1.7.2.9l1.4.9c-.4.7-.6 1.5-.7 2.3H2.2c-.4 0-.7.3-.7.7v2c0 .4.3.7.7.7h1.6c.1.8.3 1.6.7 2.3l-1.4.9c-.3.2-.4.6-.2.9l1 1.7c.2.3.6.4.9.2l1.4-.9c.5.6 1.1 1.1 1.7 1.5l-.5 1.6c-.1.4.1.8.5.9l1.9.6c.4.1.8-.1.9-.5l.5-1.6c.8.1 1.6.1 2.4 0l.5 1.6c.1.4.5.6.9.5l1.9-.6c.4-.1.6-.5.5-.9l-.5-1.6c.7-.4 1.3-.9 1.7-1.5l1.4.9c.3.2.7.1.9-.2l1-1.7c.2-.3.1-.7-.2-.9l-1.4-.9c.4-.7.6-1.5.7-2.3h1.6c.4 0 .7-.3.7-.7v-2c0-.4-.3-.7-.7-.7M12 14a1 1 0 1 0 0-2a1 1 0 0 0 0 2" />
</svg> 